<?xml version="1.0" encoding="utf-8"?>
<!-- Generator: Adobe Illustrator 19.2.1, SVG Export Plug-In . SVG Version: 6.00 Build 0)  -->
<svg version="1.1" id="Layer_1" xmlns="http://www.w3.org/2000/svg" xmlns:xlink="http://www.w3.org/1999/xlink" x="0px" y="0px"
	 viewBox="0 0 170 171.1" style="enable-background:new 0 0 170 171.1;" xml:space="preserve">
<g id="Layer_1_1_">
	<path d="M148.6,30.7L123.3,7.3c-6.2-6.2-6.5-6.3-8.4-6.3c-3.1,0-76.5,0-76.5,0c-2.5,0-3.7,1.1-7.1,4.2L3.5,30.5
		c-3.2,3.2-3.5,5-3.5,7.4v112.6c0,2,1.6,3.6,3.6,3.6h145.9c2,0,3.6-1.6,3.6-3.6V38C153.2,35.5,151.8,33.7,148.6,30.7z M37.1,2.9
		h31.6L67,13.1h19.2L84.5,2.9H116l32.2,30.6H89.4L87.7,21H65.4l-1.6,12.6h-59L37.1,2.9z M150.2,151.3H89.4v-22.8H63.8v22.8h-61V35.5
		h61v16h25.5v-16h60.8L150.2,151.3L150.2,151.3z"/>
	<g>
		<path d="M148,168.8h-6.9v-1.3h6.9V168.8z M137,168.8h-8v-1.3h8.1v1.3H137z M124.9,168.8h-8.1v-1.3h8.1V168.8z M112.8,168.8h-8.1
			v-1.3h8.1V168.8z M100.7,168.8h-8.1v-1.3h8.1V168.8z M88.6,168.8h-8.1v-1.3h8.1V168.8z M76.5,168.8h-8.1v-1.3h8.1V168.8z
			 M64.4,168.8h-8.1v-1.3h8.1V168.8z M52.3,168.8h-8.1v-1.3h8.1C52.3,167.5,52.3,168.8,52.3,168.8z M40.2,168.8h-8.1v-1.3h8.1
			C40.2,167.5,40.2,168.8,40.2,168.8z M28.1,168.8H20v-1.3h8.1V168.8z M16,168.8H7.9v-1.3H16V168.8z"/>
		<g>
			<polygon points="2.7,168.1 10,171.1 8.3,168.1 10,165.1 			"/>
		</g>
		<g>
			<polygon points="153.2,168.1 145.8,171.1 147.6,168.1 145.8,165.1 			"/>
		</g>
	</g>
	<g>
		<path d="M167.7,148.3h-1.3v-8.1h1.3V148.3z M167.7,136.2h-1.3v-8.1h1.3V136.2z M167.7,124.1h-1.3V116h1.3V124.1z M167.7,112h-1.3
			v-8.1h1.3V112z M167.7,99.9h-1.3v-8.1h1.3V99.9z M167.7,87.8h-1.3v-8.1h1.3V87.8z M167.7,75.7h-1.3v-8.1h1.3V75.7z M167.7,63.6
			h-1.3v-8.1h1.3V63.6z M167.7,51.5h-1.3v-8.1h1.3V51.5z"/>
		<g>
			<polygon points="167,38.2 164,45.5 167,43.8 170,45.5 			"/>
		</g>
		<g>
			<polygon points="167,154.2 164,146.8 167,148.6 170,146.8 			"/>
		</g>
	</g>
	<g>
		<rect x="159.1" y="25.4" transform="matrix(0.6461 -0.7633 0.7633 0.6461 35.6221 131.5978)" width="1.3" height="4"/>
		<path d="M154.4,23.8l-6.8-5.8l0.9-1l6.8,5.8L154.4,23.8z M144.1,15.1l-6.8-5.8l0.9-1l6.8,5.8L144.1,15.1z"/>
		<rect x="132.2" y="2.7" transform="matrix(0.6462 -0.7631 0.7631 0.6462 43.4208 103.0498)" width="1.3" height="4"/>
		<g>
			<polygon points="165.3,32.1 161.6,25.1 161,28.5 157.7,29.7 			"/>
		</g>
		<g>
			<polygon points="127.3,0 134.9,2.5 131.6,3.6 131,7.1 			"/>
		</g>
	</g>
</g>
</svg>
